<svg viewBox="0 0 16 16" xmlns="http://www.w3.org/2000/svg"><defs><linearGradient id="j1" x1="90%" y1="10%" x2="30%" y2="70%"><stop offset="0%" stop-color="#0052CC"/><stop offset="100%" stop-color="#2684FF"/></linearGradient><linearGradient id="j2" x1="10%" y1="90%" x2="70%" y2="30%"><stop offset="0%" stop-color="#0052CC"/><stop offset="100%" stop-color="#2684FF"/></linearGradient></defs><path fill="#2684FF" d="M14.83 7.43 8.57 1.17 8 .6 2.73 5.87.57 8.03a.54.54 0 0 0 0 .77l3.35 3.35L8 16.23l4.08-4.08.12-.12 2.63-2.63a.54.54 0 0 0 0-.77zM8 10.42 5.58 8 8 5.58 10.42 8z"/><path fill="url(#j1)" d="M8 5.58A3.4 3.4 0 0 1 7.99.6L2.72 5.87 5.58 8z"/><path fill="url(#j2)" d="M10.43 7.99 8 10.42a3.4 3.4 0 0 1 0 4.98l5.28-5.28z"/></svg>