<svg viewBox="0 0 16 16" xmlns="http://www.w3.org/2000/svg"><g fill="none"><path d="M12.5 2.5C11.3 1.3 9.7.7 8 .7S4.7 1.3 3.5 2.5C2.3 3.7 1.5 5.3 1.5 7c0 2.2 1 3.8 2.5 4.8v2.5c0 .4.3.7.7.7h6.6c.4 0 .7-.3.7-.7v-2.5c1.5-1 2.5-2.6 2.5-4.8 0-1.7-.8-3.3-2-4.5z" fill="#336791"/><ellipse cx="8" cy="6" rx="2.2" ry="2.5" fill="#fff" opacity=".3"/><path d="M6.5 11.5v3M9.5 11.5v3" stroke="#fff" stroke-width=".6" opacity=".4"/><path d="M5 7.5c.5-.8 1.5-1.3 3-1.3s2.5.5 3 1.3" stroke="#fff" stroke-width=".7" fill="none" stroke-linecap="round" opacity=".5"/></g></svg>